<svg preserveAspectRatio="none" overflow="visible" style="display: block;" width="31.2992" height="40.0001" viewBox="0 0 31.2992 40.0001" fill="none" xmlns="http://www.w3.org/2000/svg">
<g id="Black">
<path id="Vector" d="M14.5668 39.7595C14.3197 39.6418 14.0138 39.383 13.8726 39.1947C13.6373 38.877 13.6138 38.8652 13.2019 39.0182C12.9666 39.1006 12.5901 39.1712 12.3783 39.1829C11.3075 39.1947 10.1191 38.1475 10.1191 37.1944C10.1191 36.8767 10.072 36.8296 9.6837 36.759C9.06007 36.6531 8.68354 36.4295 8.25994 35.9589C7.90695 35.547 7.64808 34.8881 7.64808 34.4174C7.65985 34.288 7.73045 33.9821 7.82458 33.7232C7.97755 33.2761 7.97755 33.2643 7.63631 32.9702C6.57732 32.0877 6.57732 30.1815 7.64808 29.4049C7.95401 29.1695 7.96578 29.146 7.81281 28.7342C7.41275 27.6046 7.93048 26.3456 9.00124 25.8396C9.22481 25.7337 9.41307 25.616 9.41307 25.5807C9.41307 25.5454 8.94241 24.71 8.37761 23.7334C7.21272 21.7213 7.15388 21.6036 7.24802 21.3565C7.38922 20.9917 7.70691 20.9447 9.07184 21.1329C9.80137 21.2271 10.4368 21.2624 10.4838 21.2153C10.5191 21.1565 10.7545 20.6034 11.0016 19.9798C11.4722 18.7443 11.6134 18.5561 12.0253 18.6149C12.2371 18.6384 12.543 19.0738 13.4137 20.5917C14.355 22.2155 14.5786 22.5214 14.7669 22.4743C15.0728 22.4037 16.2259 22.4037 16.5319 22.4743C16.7201 22.5214 16.9437 22.2155 17.885 20.5917C18.8499 18.9091 19.0499 18.6502 19.3206 18.6149C19.6971 18.5678 19.8148 18.7208 20.4266 20.1563C20.6619 20.7329 20.9326 21.2271 21.0032 21.2624C21.1444 21.3094 22.8388 21.1212 23.38 20.9917C23.7213 20.8976 24.1566 21.3447 24.0625 21.6624C24.0154 21.7919 23.5095 22.7097 22.9329 23.7098C22.3563 24.6982 21.8857 25.5454 21.8857 25.5807C21.8857 25.616 22.0739 25.7337 22.2975 25.8396C23.3683 26.3456 23.886 27.6046 23.4859 28.7342C23.333 29.146 23.3447 29.1695 23.6507 29.4049C24.7214 30.1815 24.7214 32.0877 23.6624 32.9702C23.3212 33.2643 23.3212 33.2761 23.4742 33.7232C23.5683 33.9821 23.6389 34.288 23.6507 34.4174C23.6507 34.8881 23.3918 35.547 23.0388 35.9589C22.6152 36.4295 22.2387 36.6531 21.6268 36.759C21.2267 36.8296 21.1797 36.8767 21.1797 37.1944C21.1797 38.1475 19.9913 39.1947 18.9205 39.1829C18.7087 39.1712 18.3322 39.1006 18.0968 39.0182C17.685 38.8652 17.6615 38.877 17.4261 39.1947C16.8496 39.9713 15.4729 40.2419 14.5668 39.7595ZM16.6495 38.3004C17.2143 37.6886 17.6732 37.5356 18.2145 37.818C18.6263 38.0298 19.2029 38.0651 19.5441 37.8886C19.8383 37.7239 20.1207 37.1591 20.1207 36.7119C20.1207 36.206 20.6737 35.6529 21.1797 35.6529C22.2034 35.6529 22.8035 34.6528 22.2975 33.7703C21.968 33.2055 22.0739 32.8525 22.7329 32.2406C23.2977 31.7111 23.3565 31.6288 23.3447 31.1699C23.333 30.7345 23.2624 30.6168 22.7211 30.1226C22.0739 29.5225 21.968 29.1695 22.2975 28.593C22.8035 27.6987 22.1563 26.7103 21.0738 26.7103C20.5207 26.7103 20.1207 26.2632 20.1207 25.6396C20.1207 25.2513 20.0501 25.0865 19.7206 24.7571C19.2735 24.3099 18.944 24.2629 18.2733 24.5335C17.5673 24.8277 17.332 24.7688 16.7084 24.1217C16.2024 23.6039 16.0847 23.5333 15.6494 23.5333C15.214 23.5333 15.0963 23.6039 14.5904 24.1217C13.9667 24.7688 13.7314 24.8277 13.0254 24.5335C12.3547 24.2629 12.0253 24.3099 11.5781 24.7571C11.2487 25.0865 11.1781 25.2513 11.1781 25.6396C11.1781 26.2632 10.778 26.7103 10.225 26.7103C9.14244 26.7103 8.49528 27.6987 9.00124 28.593C9.33071 29.1695 9.22481 29.5225 8.57764 30.1226C8.03638 30.6168 7.96578 30.7345 7.95401 31.1699C7.94225 31.6288 8.00108 31.7111 8.56588 32.2406C9.22481 32.8525 9.33071 33.2055 9.00124 33.7703C8.49528 34.6528 9.09537 35.6529 10.1191 35.6529C10.625 35.6529 11.1781 36.206 11.1781 36.7119C11.1781 37.1591 11.4605 37.7239 11.7546 37.8886C12.0959 38.0651 12.6724 38.0298 13.0843 37.818C13.6255 37.5356 14.1315 37.6768 14.5786 38.2534C15.2846 39.1241 15.9082 39.1359 16.6495 38.3004ZM11.7664 23.298C12.2724 23.1568 12.8489 23.2156 13.449 23.4745C13.802 23.6275 13.6844 23.298 12.8254 21.8389C11.9076 20.2505 12.0723 20.2622 11.5075 21.733C11.2251 22.4861 11.0839 22.5449 9.83667 22.3684C9.33071 22.2978 8.90711 22.239 8.88357 22.239C8.86004 22.239 9.14244 22.7567 9.49544 23.3921L10.1544 24.5453L10.6956 23.9922C11.0722 23.6039 11.4016 23.3921 11.7664 23.298ZM21.921 23.1686C22.1563 22.745 22.3563 22.3684 22.3563 22.3331C22.3563 22.3096 21.9445 22.3449 21.4503 22.4273C20.4266 22.592 20.0972 22.4861 19.9324 21.9801C19.8854 21.8272 19.7324 21.4153 19.5677 21.0741L19.2853 20.427L18.4734 21.8389C17.6262 23.298 17.4967 23.6275 17.8615 23.4745C18.944 23.0156 19.803 23.1686 20.5913 23.9922L21.1208 24.5453L21.3091 24.2393C21.4032 24.0746 21.6856 23.5922 21.921 23.1686Z" fill="#1854A0"/>
<path id="Vector_2" d="M14.4846 36.7708C13.3197 36.5119 12.496 36.053 11.6488 35.194C10.378 33.9232 9.9309 32.7348 10.025 30.8521C10.0721 29.852 10.1309 29.5931 10.5075 28.793C11.8724 25.8396 15.3906 24.6747 18.3793 26.1926C19.3089 26.6632 20.2973 27.734 20.7915 28.793C21.168 29.5931 21.2268 29.852 21.2739 30.8521C21.3563 32.6054 20.9444 33.8173 19.8619 35.0058C18.4852 36.5119 16.3908 37.2061 14.4846 36.7708ZM17.591 35.2999C19.7089 34.288 20.7209 31.8641 19.9443 29.652C19.8384 29.3578 19.6736 29.0048 19.5795 28.8518L19.3913 28.5694L19.0618 28.9695C18.6029 29.5225 17.9087 29.9814 17.0379 30.2991C16.4261 30.5227 16.3555 30.5815 16.5673 30.6403C16.9791 30.7815 17.5204 31.2875 17.7792 31.8052C18.1558 32.523 18.0616 33.6055 17.5792 34.1939C16.932 35.0058 16.6732 35.1234 15.6495 35.1234C14.6258 35.1234 14.3669 35.0058 13.7197 34.1939C13.2373 33.6055 13.1432 32.523 13.5197 31.8052C13.7786 31.2875 14.3198 30.7815 14.7317 30.6403C14.9435 30.5815 14.8729 30.5227 14.261 30.2991C13.3903 29.9814 12.6961 29.5225 12.2372 28.9695L11.9077 28.5694L11.7194 28.8518C10.9075 30.0873 10.9075 32.1112 11.7077 33.4761C12.3078 34.5116 13.555 35.4294 14.6964 35.6647C15.52 35.8412 16.7908 35.6765 17.591 35.2999ZM16.226 33.9468C16.4143 33.8526 16.6496 33.5938 16.7555 33.3702C17.085 32.676 16.7908 32.017 16.0378 31.6876C15.7083 31.5581 15.5906 31.5581 15.2729 31.6876C14.5081 32.017 14.2139 32.676 14.5434 33.3702C14.8729 34.0527 15.5671 34.2998 16.226 33.9468ZM16.7908 29.1695C17.5204 28.8989 18.6735 27.887 18.5323 27.6516C18.3793 27.4163 17.1085 26.8515 16.379 26.7103C15.8024 26.5926 15.4965 26.5926 14.9199 26.7103C14.1669 26.8515 13.0373 27.3339 12.8137 27.6046C12.6019 27.8634 13.5785 28.7812 14.414 29.1225C15.2847 29.4755 15.9083 29.4872 16.7908 29.1695Z" fill="#1854A0"/>
<path id="Vector_3" d="M3.55352 19.6502C3.15345 19.5561 2.65925 19.1678 2.45922 18.7913C2.38862 18.6854 2.08269 17.4616 1.77676 16.085C1.45906 14.72 0.929562 12.402 0.600097 10.9547C0.270632 9.50742 0 8.16603 0 7.95423C0 7.51886 0.352998 6.907 0.76483 6.63637C1.03546 6.45987 3.21228 5.8833 3.62412 5.8833C3.98888 5.8833 4.82431 6.3775 5.02434 6.71873L5.22437 7.05996L8.58962 3.71825C10.437 1.88266 12.1078 0.294165 12.3196 0.188266C12.5314 0.0823663 12.9786 0 13.3316 0C14.0611 0 14.6141 0.305932 15.0024 0.906029C15.1319 1.11783 15.2731 1.28256 15.3201 1.29433C15.3672 1.29433 15.6261 1.08253 15.8967 0.823663C16.485 0.270632 17.0145 0.0705996 17.7793 0.141199C18.4265 0.211799 19.0737 0.635397 19.3561 1.17666L19.5326 1.50613L19.9679 1.28256C21.2387 0.635397 22.7802 1.45906 23.0155 2.89459C23.0743 3.30642 23.1449 3.40055 23.4038 3.44762C24.2745 3.62412 24.9923 4.56544 24.9923 5.53031C24.9923 6.0598 24.9923 6.07157 25.6041 6.3422L26.216 6.61283L26.6749 6.3069C26.922 6.15394 27.2632 5.97744 27.4397 5.94214C27.828 5.848 30.0049 6.31867 30.4755 6.61283C30.9344 6.88347 31.2992 7.48356 31.2992 7.95423C31.2992 8.16603 31.0285 9.50742 30.6991 10.9547C30.3696 12.402 29.8401 14.7318 29.5224 16.1203C29.193 17.5675 28.8517 18.7677 28.7341 18.9325C28.334 19.4737 27.9457 19.6738 27.3456 19.6738C26.6749 19.6738 24.8864 19.2384 24.4981 18.9913C24.0509 18.6971 23.7685 18.1206 23.7685 17.4734C23.7685 16.8851 23.7685 16.8851 23.2273 16.6615C22.333 16.2968 21.8271 16.4262 20.0032 17.4734C18.1323 18.5559 17.6264 18.7913 16.8615 18.9325C15.8967 19.1207 14.5788 18.6971 13.9552 18.0147C13.7434 17.7793 13.6257 17.7676 10.6488 17.7676H7.5777L7.4365 18.1794C7.20116 18.8266 6.7305 19.1207 5.50677 19.4031C4.07125 19.7444 4.01241 19.7561 3.55352 19.6502ZM5.11847 18.3441C6.60107 17.9676 6.56577 18.0735 6.00097 15.579C4.31835 8.22486 4.10655 7.35413 3.91828 7.21293C3.65942 7.0129 3.51822 7.02466 2.43569 7.28353C1.37669 7.5424 1.17666 7.67183 1.17666 8.08366C1.17666 8.38959 3.20052 17.3793 3.42408 18.0853C3.61235 18.6618 3.74178 18.6854 5.11847 18.3441ZM27.5809 18.5206C27.6751 18.4853 27.8163 18.2853 27.8751 18.0853C28.1104 17.3675 30.1225 8.37782 30.1225 8.07189C30.1225 7.67183 29.8048 7.48356 28.7458 7.24823C27.7221 7.02466 27.628 7.0129 27.3809 7.21293C27.1926 7.35413 26.9808 8.22486 25.2982 15.579C24.7334 18.0735 24.7099 17.9676 26.1219 18.3324C27.1103 18.5912 27.3103 18.6265 27.5809 18.5206ZM18.0617 17.2498C18.5795 16.9792 19.5326 16.4497 20.1915 16.085C21.58 15.2848 22.2036 15.1554 23.192 15.4613C23.545 15.579 23.8862 15.6849 23.9686 15.7202C24.0509 15.7555 24.1921 15.379 24.3569 14.6259C24.4981 13.9905 24.8981 12.2373 25.2511 10.7311C25.6041 9.22502 25.8865 7.93069 25.8865 7.83656C25.8865 7.75419 25.5335 7.53063 25.1099 7.35413L24.3333 7.02466L21.3211 10.0369C17.9911 13.3551 17.7558 13.5316 16.5321 13.5316C15.7437 13.5316 15.2731 13.3433 14.1317 12.6138C13.2845 12.0608 12.2726 11.6489 11.7548 11.6489C11.4018 11.6489 10.6723 11.9078 10.4017 12.1314C10.2722 12.2373 10.484 12.5197 11.3312 13.461C11.9313 14.1199 12.8844 15.2025 13.461 15.8614C14.0376 16.5321 14.6612 17.1792 14.8612 17.3204C15.8379 18.0147 16.6498 18.0029 18.0617 17.2498ZM12.402 16.4497C12.202 16.1203 10.3311 14.014 9.60155 13.2963C9.16619 12.8727 8.82496 12.4373 8.82496 12.3079C8.82496 12.1784 9.07205 11.849 9.36622 11.5548C10.9194 10.0722 12.602 10.2134 15.3907 12.0608C15.932 12.4138 16.9086 12.4961 17.4263 12.2373C17.8146 12.0255 23.5097 6.36573 23.7215 5.97744C23.945 5.54207 23.9333 5.25967 23.6391 4.89491C23.4508 4.64781 23.2979 4.58898 22.9096 4.58898C22.4389 4.58898 22.3683 4.64781 20.0621 6.9423C17.7323 9.26032 17.4263 9.49565 17.0851 9.15442C16.7439 8.81319 16.9674 8.50726 19.2502 6.2363C21.5211 3.96535 21.8859 3.52998 21.8859 3.07108C21.8859 2.56512 21.3329 2.17682 20.6622 2.22389C20.521 2.23566 19.3208 3.32995 17.8617 4.78901C15.4025 7.24823 15.2848 7.34236 14.9789 7.2247C14.7553 7.1541 14.6377 7.02466 14.6141 6.81287C14.5906 6.56577 14.8965 6.18924 16.4615 4.61251C17.6028 3.47115 18.3794 2.58865 18.4265 2.40039C18.603 1.71792 17.8264 1.02369 17.191 1.28256C17.0145 1.36493 15.9791 2.31802 14.8848 3.41232C13.2727 5.02434 12.8256 5.41264 12.5667 5.41264C12.1549 5.41264 11.9313 5.04787 12.1196 4.69488C12.202 4.56544 12.7079 4.00065 13.2492 3.44762C14.0729 2.61219 14.2376 2.38862 14.2376 2.07092C14.2376 1.42376 13.5669 0.929562 12.9668 1.14136C12.8256 1.20019 11.0959 2.84752 9.11912 4.82431L5.51854 8.41312L5.8833 10.0016C6.08334 10.8723 6.4834 12.6491 6.77757 13.9434C7.07173 15.2378 7.3306 16.3674 7.35413 16.4497C7.38943 16.5556 8.01306 16.5909 9.94278 16.5909C11.9431 16.5909 12.4726 16.5556 12.402 16.4497Z" fill="#1854A0"/>
</g>
</svg>
